<svg width="251" height="251" viewBox="0 0 251 251" fill="none" xmlns="http://www.w3.org/2000/svg">
<rect x="0.619141" y="0.164062" width="250" height="250" rx="65" fill="url(#paint0_linear_0_1)"/>
<path d="M53.8602 134.831V113.809H44.6142L44.4762 117.305C44.4149 119.176 44.2922 120.924 44.1082 122.549C43.9549 124.174 43.7249 125.662 43.4182 127.011C43.1422 128.36 42.7589 129.526 42.2682 130.507C41.8082 131.458 41.2409 132.194 40.5662 132.715L30.8602 131.565C31.9335 131.596 32.8075 131.243 33.4822 130.507C34.1875 129.74 34.7395 128.682 35.1382 127.333C35.5675 125.984 35.8742 124.389 36.0582 122.549C36.2729 120.709 36.4262 118.7 36.5182 116.523L36.8862 106.587H62.8302V134.831H53.8602ZM29.8942 145.273V131.565H67.2002V145.273H58.8742V138.787H38.2662V145.273H29.8942ZM83.1967 139.201C80.4674 139.201 78.0447 138.649 75.9287 137.545C73.8127 136.441 72.1414 134.923 70.9147 132.991C69.7187 131.028 69.1207 128.79 69.1207 126.275C69.1207 123.76 69.7187 121.537 70.9147 119.605C72.1414 117.673 73.8127 116.17 75.9287 115.097C78.0447 113.993 80.4674 113.441 83.1967 113.441C85.926 113.441 88.3487 113.993 90.4647 115.097C92.6114 116.17 94.2827 117.673 95.4787 119.605C96.6747 121.537 97.2727 123.76 97.2727 126.275C97.2727 128.79 96.6747 131.028 95.4787 132.991C94.2827 134.923 92.6114 136.441 90.4647 137.545C88.3487 138.649 85.926 139.201 83.1967 139.201ZM83.1967 132.255C84.2087 132.255 85.098 132.025 85.8647 131.565C86.662 131.105 87.2907 130.43 87.7507 129.541C88.2107 128.621 88.4407 127.532 88.4407 126.275C88.4407 125.018 88.2107 123.96 87.7507 123.101C87.2907 122.212 86.662 121.537 85.8647 121.077C85.098 120.617 84.2087 120.387 83.1967 120.387C82.2154 120.387 81.326 120.617 80.5287 121.077C79.762 121.537 79.1334 122.212 78.6427 123.101C78.1827 123.96 77.9527 125.018 77.9527 126.275C77.9527 127.532 78.1827 128.621 78.6427 129.541C79.1334 130.43 79.762 131.105 80.5287 131.565C81.326 132.025 82.2154 132.255 83.1967 132.255ZM113.884 139.201C111.124 139.201 108.655 138.649 106.478 137.545C104.331 136.441 102.644 134.923 101.418 132.991C100.191 131.028 99.5777 128.79 99.5777 126.275C99.5777 123.76 100.191 121.537 101.418 119.605C102.644 117.673 104.331 116.17 106.478 115.097C108.655 113.993 111.124 113.441 113.884 113.441C116.705 113.441 119.143 114.039 121.198 115.235C123.252 116.431 124.709 118.118 125.568 120.295L118.806 123.745C118.223 122.58 117.502 121.736 116.644 121.215C115.785 120.663 114.85 120.387 113.838 120.387C112.826 120.387 111.906 120.617 111.078 121.077C110.25 121.537 109.59 122.212 109.1 123.101C108.64 123.96 108.41 125.018 108.41 126.275C108.41 127.563 108.64 128.652 109.1 129.541C109.59 130.43 110.25 131.105 111.078 131.565C111.906 132.025 112.826 132.255 113.838 132.255C114.85 132.255 115.785 131.994 116.644 131.473C117.502 130.921 118.223 130.062 118.806 128.897L125.568 132.347C124.709 134.524 123.252 136.211 121.198 137.407C119.143 138.603 116.705 139.201 113.884 139.201ZM134.879 138.787V118.869L136.765 120.801H126.829V113.855H151.577V120.801H141.641L143.573 118.869V138.787H134.879ZM159.833 148.125C158.514 148.125 157.18 147.91 155.831 147.481C154.512 147.082 153.439 146.546 152.611 145.871L155.647 139.753C156.168 140.213 156.766 140.566 157.441 140.811C158.146 141.087 158.836 141.225 159.511 141.225C160.462 141.225 161.213 141.01 161.765 140.581C162.317 140.152 162.792 139.477 163.191 138.557L164.341 135.659L165.031 134.785L173.495 113.855H181.821L171.057 139.799C170.198 141.946 169.202 143.617 168.067 144.813C166.963 146.04 165.721 146.898 164.341 147.389C162.992 147.88 161.489 148.125 159.833 148.125ZM163.237 139.845L152.243 113.855H161.213L169.309 134.003L163.237 139.845ZM184.657 138.787V113.855H210.417V138.787H201.723V118.915L203.655 120.801H191.465L193.351 118.915V138.787H184.657ZM219.914 139.201C218.442 139.201 217.2 138.71 216.188 137.729C215.176 136.748 214.67 135.506 214.67 134.003C214.67 132.439 215.176 131.197 216.188 130.277C217.2 129.326 218.442 128.851 219.914 128.851C221.386 128.851 222.628 129.326 223.64 130.277C224.652 131.197 225.158 132.439 225.158 134.003C225.158 135.506 224.652 136.748 223.64 137.729C222.628 138.71 221.386 139.201 219.914 139.201Z" fill="white"/>
<defs>
<linearGradient id="paint0_linear_0_1" x1="4.43167" y1="250.164" x2="280.954" y2="40.0944" gradientUnits="userSpaceOnUse">
<stop stop-color="#10476E"/>
<stop offset="1" stop-color="#39A6F5"/>
</linearGradient>
</defs>
</svg>
